<svg id="Layer_1" data-name="Layer 1" xmlns="http://www.w3.org/2000/svg" viewBox="0 0 128 128"><defs><style>.cls-1{fill:#fff;}.cls-2{fill:none;stroke:#04345c;stroke-miterlimit:10;stroke-width:2px;}.cls-3{fill:#1a5474;}.cls-4{fill:#6ad5cb;}.cls-5{fill:#04345c;}</style></defs><circle class="cls-1" cx="64" cy="64" r="64"/><line class="cls-2" x1="39" y1="111" x2="82" y2="111"/><line class="cls-2" x1="54" y1="83" x2="54" y2="110"/><line class="cls-2" x1="67" y1="78" x2="67" y2="111"/><polyline class="cls-2" points="40.17 98.05 48.17 97.93 47.89 79.93 44.23 75.49"/><polyline class="cls-2" points="81.66 106.52 73.67 106.4 73.94 88.4 77.61 83.96"/><circle class="cls-3" cx="67" cy="77" r="2"/><circle class="cls-3" cx="54" cy="82" r="2"/><polyline class="cls-2" points="60 110 60 72 66.5 65.5"/><circle class="cls-4" cx="66" cy="66" r="2"/><path class="cls-5" d="M40.69,58H81.32v54H83V56.06a1.65,1.65,0,0,0-.23-.83l-9.36-15.9v-8a2,2,0,0,0-1.64-1.78V18.87A2.16,2.16,0,0,0,69.43,17H68.8L52,20.9a2,2,0,0,0-1.71,1.83v6.78a2,2,0,0,0-1.64,1.78v8l-9.36,15.9a1.65,1.65,0,0,0-.23.83V112h1.68Zm9.59-26.77H71.73v6.68H50.28Z" transform="translate(0 0)"/><circle class="cls-4" cx="44" cy="75" r="2"/><circle class="cls-4" cx="77.83" cy="83.47" r="2"/></svg>