<svg xmlns="http://www.w3.org/2000/svg" viewBox="0 0 25 25"><defs><style>.cls-1{fill:#fff;}.cls-2{fill:#04345c;}.cls-3{fill:#1a5474;}.cls-4{fill:#6ad5cb;}</style></defs><g id="_250px" data-name="250px"><circle class="cls-1" cx="12.61" cy="12.61" r="12"/><rect class="cls-2" x="7.96" y="21.41" width="8.25" height="0.29"/><rect class="cls-2" x="10.53" y="16.21" width="0.29" height="5.38"/><rect class="cls-2" x="13.06" y="15.27" width="0.29" height="6.19"/><polygon class="cls-2" points="8.18 19.17 8.18 18.89 9.53 18.86 9.48 15.69 8.83 14.89 9.05 14.71 9.77 15.58 9.82 19.15 8.18 19.17"/><polygon class="cls-2" points="15.95 20.76 14.31 20.74 14.37 17.17 15.09 16.3 15.31 16.48 14.65 17.27 14.6 20.45 15.96 20.47 15.95 20.76"/><circle class="cls-3" cx="13.21" cy="15.08" r="0.37"/><circle class="cls-3" cx="10.67" cy="16.02" r="0.37"/><polygon class="cls-2" points="12.04 21.44 11.75 21.44 11.75 14.11 13.01 12.82 13.22 13.03 12.04 14.23 12.04 21.44"/><circle class="cls-4" cx="13.02" cy="13.02" r="0.37"/><path class="cls-2" d="M8.27,11.51h7.62V21.64h.32V11.16a.3.3,0,0,0-.05-.16L14.41,8V6.51a.38.38,0,0,0-.31-.33v-2a.41.41,0,0,0-.44-.35h-.11l-3.16.73a.4.4,0,0,0-.33.35V6.18a.36.36,0,0,0-.3.33V8L8,11a.29.29,0,0,0,0,.16V21.64h.31Zm1.8-5h4V7.75h-4Z"/><circle class="cls-4" cx="8.89" cy="14.71" r="0.37"/><circle class="cls-4" cx="15.24" cy="16.3" r="0.37"/></g></svg>