<svg xmlns="http://www.w3.org/2000/svg" viewBox="0 0 3197.78 685.24"><defs><style>.cls-1{fill:#04345c;}.cls-2{fill:#6ad5cb;}</style></defs><g id="_250px" data-name="250px"><path class="cls-1" d="M360.07,549.14H292.32v-186H102V549.14H34.56V136.38H102V305.21H292.32V136.38h67.75Z"/><path class="cls-1" d="M468.76,549.14V136.38h67.48V549.14Z"/><path class="cls-1" d="M814,325.26H965.93V532.48a440.22,440.22,0,0,1-71.57,17.22,506.36,506.36,0,0,1-74.11,5.08q-93.74,0-144.54-55.47T624.89,342.76q0-99.66,57.31-156T840,130.46A307.39,307.39,0,0,1,962.54,155.3l-23.71,56.18q-50.26-23.14-100.51-23.15-66.06,0-104.46,41.5t-38.39,113.5q0,75.66,34.58,115t99.52,39.38q32.74,0,70-8.18V383.13H814Z"/><path class="cls-1" d="M1390.54,549.14h-67.76v-186H1132.5V549.14H1065V136.38h67.48V305.21h190.28V136.38h67.76Z"/><path class="cls-2" d="M1566.7,384.26V549.14h-67.47V136.38h116.6q79.89,0,118.29,29.93t38.39,90.34q0,77.09-80.17,109.83l116.59,182.66h-76.79l-98.81-164.88Zm0-55.9h46.87q47.15,0,68.32-17.5t21.17-51.95q0-35-22.86-50.25t-68.89-15.25H1566.7Z"/><path class="cls-1" d="M1868.79,549.14V136.38h67.47V549.14Z"/><path class="cls-1" d="M2214.06,325.26H2366V532.48a440,440,0,0,1-71.57,17.22,506.36,506.36,0,0,1-74.11,5.08q-93.73,0-144.54-55.47t-50.82-156.55q0-99.66,57.31-156T2240,130.46a307.38,307.38,0,0,1,122.52,24.84l-23.71,56.18q-50.26-23.14-100.51-23.15-66.06,0-104.46,41.5t-38.39,113.5q0,75.66,34.58,115t99.52,39.38q32.74,0,70-8.18V383.13h-85.54Z"/><path class="cls-1" d="M2790.56,549.14H2722.8v-186H2532.52V549.14H2465V136.38h67.48V305.21H2722.8V136.38h67.76Z"/><path class="cls-1" d="M3041.82,549.14h-67.47V194.26H2853V136.38h310.27v57.88h-121.4Z"/></g></svg>