<svg xmlns="http://www.w3.org/2000/svg" viewBox="0 0 3197.78 685.24"><defs><style>.cls-1{fill:#04345c;}.cls-2{fill:#6ad5cb;}</style></defs><g id="_250px" data-name="250px"><path class="cls-1" d="M380.24,495.63H312.48v-186H122.2V495.63H54.72V82.88H122.2V251.7H312.48V82.88h67.76Z"/><path class="cls-1" d="M488.93,495.63V82.88h67.48V495.63Z"/><path class="cls-1" d="M834.21,271.75H986.1V479a438.15,438.15,0,0,1-71.57,17.22,506.31,506.31,0,0,1-74.11,5.09q-93.74,0-144.55-55.48T645.05,289.25q0-99.65,57.32-156T860.18,77a307.43,307.43,0,0,1,122.53,24.84L959,158q-50.25-23.16-100.5-23.16-66.06,0-104.46,41.51t-38.4,113.49q0,75.66,34.59,115t99.52,39.39q32.75,0,70-8.19V329.62H834.21Z"/><path class="cls-1" d="M1410.7,495.63H1343v-186H1152.66V495.63h-67.47V82.88h67.47V251.7H1343V82.88h67.75Z"/><path class="cls-2" d="M1586.87,330.75V495.63H1519.4V82.88H1636q79.9,0,118.3,29.92t38.39,90.35q0,77.07-80.18,109.82l116.6,182.66h-76.79L1653.5,330.75Zm0-55.89h46.87q47.15,0,68.32-17.51t21.17-52q0-35-22.87-50.25t-68.88-15.24h-44.61Z"/><path class="cls-1" d="M1889,495.63V82.88h67.48V495.63Z"/><path class="cls-1" d="M2234.23,271.75h151.89V479a438.15,438.15,0,0,1-71.57,17.22,506.31,506.31,0,0,1-74.11,5.09q-93.74,0-144.55-55.48t-50.82-156.55q0-99.65,57.32-156T2260.2,77a307.43,307.43,0,0,1,122.53,24.84L2359,158q-50.25-23.16-100.5-23.16-66.06,0-104.46,41.51t-38.4,113.49q0,75.66,34.59,115t99.52,39.39q32.74,0,70-8.19V329.62h-85.54Z"/><path class="cls-1" d="M2810.73,495.63H2743v-186H2552.69V495.63h-67.48V82.88h67.48V251.7H2743V82.88h67.76Z"/><path class="cls-1" d="M3062,495.63h-67.47V140.75h-121.4V82.88h310.27v57.87H3062Z"/></g></svg>